<?xml version="1.0" standalone="no"?>
<!DOCTYPE svg PUBLIC "-//W3C//DTD SVG 20010904//EN"
 "http://www.w3.org/TR/2001/REC-SVG-20010904/DTD/svg10.dtd">
<svg version="1.0" xmlns="http://www.w3.org/2000/svg"
 width="526.000000pt" height="475.000000pt" viewBox="0 0 526.000000 475.000000"
 preserveAspectRatio="xMidYMid meet">

<g transform="translate(0.000000,475.000000) scale(0.100000,-0.100000)"
fill="#000000" stroke="none">
<path d="M2411 4708 c-59 -39 -76 -80 -76 -178 2 -221 121 -534 464 -1216 190
-378 271 -531 482 -912 l130 -233 -55 -60 c-149 -160 -226 -390 -226 -673 l0
-129 53 7 c28 3 62 6 75 6 21 0 22 3 22 109 0 113 19 246 46 328 35 104 134
268 158 260 13 -4 187 -351 292 -582 235 -517 345 -879 332 -1087 -6 -88 -28
-140 -72 -163 -48 -26 -185 -17 -291 19 -474 161 -1324 763 -2515 1782 -45 39
-284 245 -462 399 -95 83 -192 165 -216 184 -23 18 -42 37 -42 42 0 5 11 22
24 37 13 15 43 49 65 77 l41 50 -308 76 c-169 42 -308 75 -310 74 -2 -2 22
-63 53 -137 31 -73 75 -176 97 -228 22 -52 51 -119 64 -148 13 -29 24 -57 24
-63 0 -19 16 -5 79 69 34 39 65 72 69 72 5 0 34 -22 67 -50 32 -27 62 -47 67
-44 5 3 7 1 6 -5 -4 -14 103 -101 115 -94 6 3 7 1 4 -4 -4 -6 24 -37 61 -69
37 -32 69 -61 72 -64 3 -4 88 -77 190 -164 102 -87 196 -168 210 -180 14 -12
84 -71 155 -131 72 -60 132 -112 135 -115 17 -19 475 -389 645 -520 779 -604
1309 -927 1665 -1016 112 -27 286 -12 311 28 3 5 10 10 15 10 36 2 98 92 119
173 55 215 -59 658 -312 1205 -19 41 -44 98 -56 125 -11 28 -76 160 -143 295
-67 134 -120 250 -117 256 2 7 39 28 81 47 139 64 295 94 523 104 l157 6 6 36
c3 20 6 54 6 75 l0 39 -182 -6 c-261 -8 -452 -50 -607 -133 -36 -18 -65 -33
-66 -31 -1 1 -35 63 -77 137 -608 1087 -968 1873 -968 2116 0 57 2 64 20 64
29 0 178 -80 261 -140 290 -210 827 -723 1373 -1310 34 -36 94 -101 135 -145
41 -44 169 -176 285 -292 l211 -213 -74 -74 c-65 -66 -71 -75 -55 -83 35 -17
584 -196 588 -192 2 2 -41 140 -96 307 l-101 303 -71 -70 c-39 -39 -76 -71
-82 -71 -12 0 -425 417 -594 600 -69 74 -179 191 -245 260 -66 69 -163 169
-215 224 -236 246 -671 649 -865 802 -214 168 -341 237 -449 242 -61 3 -76 1
-105 -20z"/>
</g>
</svg>
